<?xml version="1.0" encoding="UTF-8" standalone="no"?>
<!-- Created with Inkscape (http://www.inkscape.org/) -->

<svg
   xmlns:dc="http://purl.org/dc/elements/1.1/"
   xmlns:cc="http://creativecommons.org/ns#"
   xmlns:rdf="http://www.w3.org/1999/02/22-rdf-syntax-ns#"
   xmlns:svg="http://www.w3.org/2000/svg"
   xmlns="http://www.w3.org/2000/svg"
   xmlns:sodipodi="http://sodipodi.sourceforge.net/DTD/sodipodi-0.dtd"
   xmlns:inkscape="http://www.inkscape.org/namespaces/inkscape"
   width="600.40002"
   height="600.40002"
   viewBox="0 0 600.4 600.40001"
   id="svg2"
   version="1.1"
   inkscape:version="0.91 r13725"
   sodipodi:docname="Drawing.svg">
  <defs
     id="defs4" />
  <sodipodi:namedview
     id="base"
     pagecolor="#ffffff"
     bordercolor="#666666"
     borderopacity="1.0"
     inkscape:pageopacity="0.0"
     inkscape:pageshadow="2"
     inkscape:zoom="0.98994949"
     inkscape:cx="453.06035"
     inkscape:cy="160.55277"
     inkscape:document-units="px"
     inkscape:current-layer="layer1"
     showgrid="false"
     fit-margin-top="0.2"
     fit-margin-left="0.2"
     fit-margin-right="0.2"
     fit-margin-bottom="0.2"
     units="px"
     inkscape:window-width="1920"
     inkscape:window-height="1057"
     inkscape:window-x="-8"
     inkscape:window-y="-8"
     inkscape:window-maximized="1" />
  <metadata
     id="metadata7">
    <rdf:RDF>
      <cc:Work
         rdf:about="">
        <dc:format>image/svg+xml</dc:format>
        <dc:type
           rdf:resource="http://purl.org/dc/dcmitype/StillImage" />
        <dc:title></dc:title>
      </cc:Work>
    </rdf:RDF>
  </metadata>
  <g
     inkscape:label="Layer 1"
     inkscape:groupmode="layer"
     id="layer1"
     transform="translate(0.2,-452.16218)">
    <circle
       style="fill:#5b92e6;fill-opacity:1;stroke:none;stroke-width:10;stroke-linejoin:miter;stroke-miterlimit:4;stroke-dasharray:60, 10;stroke-dashoffset:0;stroke-opacity:1"
       id="path4136"
       cx="300"
       cy="752.36218"
       r="300" />
    <path
       d="m 468.54713,752.95811 0,1.18835 2.53388,3.89895 c -8.54435,55.28263 -42.83936,101.22545 -91.01195,125.58162 12.27623,-16.42077 18.77776,-36.21998 18.77776,-58.29768 0,-54.34963 -44.06655,-98.41663 -98.41621,-98.41663 -54.35985,0 -98.41697,44.067 -98.41697,98.41663 0,11.76561 1.30658,21.50808 5.08725,31.96748 -20.42771,-26.33021 -29.22734,-60.33064 -27.75427,-97.40506 l 0,0 6.30515,-5.74531 0,-1.18835 -94.27177,0 0,1.18835 6.75691,5.71584 c 15.80162,94.9007 98.90726,169.0299 199.23897,169.0299 100.8133,0 183.88914,-74.57115 195.21315,-170.63072 l 2.69097,-4.11502 0,-1.18835 -26.74306,0 z m -168.11652,-1.11959 c 40.58996,0 73.49039,32.90048 73.49039,73.49083 0,40.59035 -32.90043,73.50066 -73.49039,73.50066 -40.59075,0 -73.50068,-32.91031 -73.50068,-73.50066 0,-40.59035 32.90993,-73.49083 73.50068,-73.49083"
       style="fill:#ffdf4f;fill-opacity:1;fill-rule:nonzero;stroke:none"
       id="path4186"
       inkscape:connector-curvature="0" />
    <path
       style="fill:#ffdf4f;fill-opacity:1;fill-rule:nonzero;stroke:none"
       d="m 298.39845,541.89257 0,5.48633 -4.51172,0 0,3.34961 4.51172,0 0,5.43555 c -5.21979,0.76818 -9.22852,5.24914 -9.22852,10.67578 0,3.23036 1.42833,6.12589 3.67383,8.10547 -51.81414,2.27501 -92.73506,29.08307 -92.84375,61.85937 l 22.64258,0.0234 0,-0.22656 c 0,-21.89356 19.09609,-40.80353 44.94921,-49.7461 -13.16806,10.70548 -24.45507,27.51818 -24.45507,46.44727 0,1.18184 0.0803,2.35339 0.11132,3.52539 l 22.42383,0 0,-0.97461 c 0,-25.93148 13.1198,-45.56933 27.13477,-51.94141 -2.41336,11.61155 -5.20117,25.95097 -5.20117,44.2793 0,2.93489 0.0801,5.81016 0.11914,8.63672 l 24.55078,0 c 0.039,-2.82656 0.11914,-5.70183 0.11914,-8.63672 0,-18.32833 -2.78781,-32.66775 -5.20117,-44.2793 14.01497,6.37208 27.13476,26.00993 27.13476,51.94141 l 0,0.97461 22.42383,0 c 0.031,-1.172 0.11133,-2.34355 0.11133,-3.52539 0,-18.92909 -11.28701,-35.74179 -24.45508,-46.44727 25.85312,8.94257 44.94922,27.85254 44.94922,49.7461 l 0,0.22656 22.64258,-0.0234 c -0.1087,-32.7763 -41.02961,-59.58436 -92.84375,-61.85937 2.2455,-1.97958 3.67383,-4.87511 3.67383,-8.10547 0,-5.42664 -4.00873,-9.9076 -9.22852,-10.67578 l 0,-5.43555 4.51172,0 0,-3.34961 -4.51172,0 0,-5.48633 z"
       id="path5593"
       inkscape:connector-curvature="0"
       sodipodi:nodetypes="ccccccscccscsccscsccscsccscscccsccccccc" />
    <path
       style="fill:#ffdf4f;fill-opacity:1;fill-rule:nonzero;stroke:none"
       d="m 209.5413,639.90019 c -4.66823,0 -8.3613,3.17138 -8.3613,9.02147 0,1.5856 0.89679,3.7315 1.54687,5.4648 2.37303,6.2836 16.77143,44.5057 16.77143,44.5057 l 80.5017,0 80.5017,0 c 0,0 14.3984,-38.2221 16.77143,-44.5057 0.65008,-1.7333 1.54687,-3.8792 1.54687,-5.4648 0,-5.85009 -3.69307,-9.02147 -8.36131,-9.02147 -5.32776,0 -9.64254,4.32224 -9.64254,9.64067 0,1.3689 0.28477,2.6695 0.79687,3.8514 -5.27882,0.049 -9.5527,4.344 -9.5527,9.6426 0,5.3281 4.32466,9.6406 9.65231,9.6406 2.35428,0 4.50933,-0.8553 6.18357,-2.2636 -0.0472,0.3844 -0.18015,0.7965 -0.35351,1.1211 -3.92916,6.7364 -11.23766,11.2773 -19.59955,11.2773 -8.4398,0 -15.91465,-4.5987 -19.82415,-11.4238 -0.17336,-0.325 -0.29156,-0.5422 -0.46484,-1.0938 1.6939,1.4576 3.98944,2.3828 6.39256,2.3828 5.32765,0 9.64059,-4.3125 9.64059,-9.6406 0,-5.3183 -4.30283,-9.6283 -9.62106,-9.6523 0.5137,-1.172 0.79687,-2.4728 0.79687,-3.8417 0,-5.31843 -4.32226,-9.64067 -9.64059,-9.64067 -5.32846,0 -9.65232,4.32224 -9.65232,9.64067 0,1.3689 0.28469,2.6695 0.79687,3.8514 -5.27892,0.049 -9.55271,4.344 -9.55271,9.6426 0,5.3281 4.32456,9.6406 9.65232,9.6406 2.36361,0 4.59918,-0.9744 6.27341,-2.3828 -0.13396,0.5224 -0.25986,0.8563 -0.48827,1.2598 -3.93949,6.7266 -11.35565,11.2578 -19.71673,11.2578 -8.35156,0 -15.64008,-4.5195 -19.58979,-11.2363 0.0157,0 -0.34637,-0.6809 -0.5039,-1.2813 1.694,1.4576 3.93875,2.3828 6.34177,2.3828 5.32774,0 9.64255,-4.3125 9.64255,-9.6406 0,-5.3183 -4.3047,-9.6283 -9.62302,-9.6523 0.51379,-1.172 0.79883,-2.4728 0.79883,-3.8417 0,-5.30461 -4.29301,-9.61632 -9.60153,-9.63872 -5.30852,0.0224 -9.60153,4.33411 -9.60153,9.63872 0,1.3689 0.28504,2.6697 0.79882,3.8417 -5.31832,0.024 -9.62301,4.334 -9.62301,9.6523 0,5.3281 4.3148,9.6406 9.64255,9.6406 2.40302,0 4.64778,-0.9252 6.34177,-2.3828 -0.15753,0.6004 -0.51963,1.2813 -0.5039,1.2813 -3.94971,6.7168 -11.23823,11.2363 -19.58978,11.2363 -8.36109,0 -15.77725,-4.5312 -19.71674,-11.2578 -0.22842,-0.4035 -0.35432,-0.7374 -0.48828,-1.2598 1.67424,1.4084 3.90982,2.3828 6.27342,2.3828 5.32776,0 9.65231,-4.3125 9.65231,-9.6406 0,-5.2986 -4.27378,-9.5934 -9.5527,-9.6426 0.51219,-1.1819 0.79687,-2.4825 0.79687,-3.8514 0,-5.31843 -4.32386,-9.64067 -9.65231,-9.64067 -5.31834,0 -9.6406,4.32224 -9.6406,9.64067 0,1.3689 0.28318,2.6697 0.79688,3.8417 -5.31824,0.024 -9.62107,4.334 -9.62107,9.6523 0,5.3281 4.31295,9.6406 9.6406,9.6406 2.40312,0 4.69865,-0.9252 6.39255,-2.3828 -0.17328,0.5516 -0.29148,0.7688 -0.46484,1.0938 -3.90951,6.8251 -11.38435,11.4238 -19.82415,11.4238 -8.36189,0 -15.67038,-4.5409 -19.59955,-11.2773 -0.17336,-0.3246 -0.30629,-0.7367 -0.35352,-1.1211 1.67425,1.4083 3.8293,2.2636 6.18358,2.2636 5.32765,0 9.65231,-4.3125 9.65231,-9.6406 0,-5.2986 -4.27388,-9.5934 -9.5527,-9.6426 0.5121,-1.1819 0.79687,-2.4825 0.79687,-3.8514 0,-5.31843 -4.31478,-9.64067 -9.64255,-9.64067 z"
       id="path5595"
       inkscape:connector-curvature="0" />
  </g>
</svg>
